<svg xmlns="http://www.w3.org/2000/svg" width="222.0615291610436" height="217.88194274902347" viewBox="0 0 150 147.17673761785025" ><g  transform="matrix(19.144863867091754,0,0,19.144863867091754,27.137840332270617,-17.862159667729383)" fill="#111111"><title xmlns="http://www.w3.org/2000/svg">maze</title><g xmlns="http://www.w3.org/2000/svg"><polygon points="2.77 1.478 3.325 1.478 3.325 1.285 2.964 1.285 2.964 0.933 2.395 0.933 2.395 1.126 2.77 1.126 2.77 1.478"></polygon><polygon points="2.396 1.93 2.59 1.93 2.59 1.361 2.237 1.361 2.237 1 2.044 1 2.044 1.555 2.396 1.555 2.396 1.93"></polygon><polygon points="3.164 2.205 3.358 2.205 3.358 1.845 3.71 1.845 3.71 1.276 3.516 1.276 3.516 1.651 3.164 1.651 3.164 2.205"></polygon><polygon points="2.763 2.059 2.413 2.059 2.403 2.498 2.597 2.502 2.603 2.253 2.957 2.253 2.957 1.684 2.763 1.684 2.763 2.059"></polygon><polygon points="4.067 2.395 3.874 2.395 3.874 2.77 3.522 2.77 3.522 3.325 3.715 3.325 3.715 2.964 4.067 2.964 4.067 2.395"></polygon><polygon points="3.513 2.396 3.07 2.396 3.07 2.59 3.707 2.59 3.707 2.237 4 2.237 4 2.044 3.513 2.044 3.513 2.396"></polygon><polygon points="3.724 3.71 3.724 3.516 3.349 3.516 3.349 3.083 2.795 3.083 2.795 3.277 3.155 3.277 3.155 3.71 3.724 3.71"></polygon><polygon points="2.747 2.503 2.747 2.942 3.316 2.942 3.316 2.748 2.941 2.748 2.941 2.503 2.747 2.503"></polygon><polygon points="2.605 4.067 2.605 3.874 2.23 3.874 2.23 3.522 1.675 3.522 1.675 3.715 2.036 3.715 2.036 4.067 2.605 4.067"></polygon><polygon points="2.956 4 2.956 3.445 2.604 3.445 2.604 3.07 2.41 3.07 2.41 3.639 2.763 3.639 2.763 4 2.956 4"></polygon><polygon points="1.484 3.349 1.836 3.349 1.836 2.795 1.642 2.795 1.642 3.155 1.29 3.155 1.29 3.724 1.484 3.724 1.484 3.349"></polygon><polygon points="2.043 3.316 2.237 3.316 2.237 2.876 2.6 2.876 2.6 2.682 2.043 2.682 2.043 3.316"></polygon><polygon points="1.126 2.23 1.497 2.23 1.497 1.675 1.304 1.675 1.304 2.036 0.933 2.036 0.933 2.605 1.126 2.605 1.126 2.23"></polygon><polygon points="1.304 2.763 1 2.763 1 2.956 1.497 2.956 1.497 2.604 1.93 2.604 1.93 2.41 1.304 2.41 1.304 2.763"></polygon><polygon points="1.651 1.909 2.205 1.909 2.205 1.716 1.845 1.716 1.845 1.29 1.276 1.29 1.276 1.484 1.651 1.484 1.651 1.909"></polygon><polygon points="1.684 2.237 2.059 2.237 2.059 2.492 2.253 2.492 2.253 2.043 1.684 2.043 1.684 2.237"></polygon></g></g><g transform="matrix(3.6891304176503636,0,0,3.6891304176503636,-1.475654277997503,58.529260335993676)" fill="#111111"><path d="M11.88 6.140000000000001 l0 2.66 l-4.18 0 l0 11.2 l-3.12 0 l0 -11.2 l-4.18 0 l0 -2.66 l11.48 0 z M17.560000000000002 6.140000000000001 q0.36 0.66 0.83 1.63 t0.98 2.1 t1.01 2.31 t0.94 2.22 q0.44 -1.04 0.94 -2.22 t1.01 -2.31 t0.98 -2.1 t0.83 -1.63 l2.84 0 q0.2 1.38 0.37 3.09 t0.3 3.56 t0.24 3.71 t0.19 3.5 l-3.04 0 q-0.06 -2.02 -0.16 -4.4 t-0.3 -4.8 q-0.36 0.84 -0.8 1.86 t-0.87 2.04 t-0.83 1.95 t-0.68 1.59 l-2.18 0 q-0.28 -0.66 -0.68 -1.59 t-0.83 -1.95 t-0.87 -2.04 t-0.8 -1.86 q-0.2 2.42 -0.3 4.8 t-0.16 4.4 l-3.04 0 q0.08 -1.64 0.19 -3.5 t0.24 -3.71 t0.3 -3.56 t0.37 -3.09 l2.98 0 z M35.6 17.62 q0.66 0 1.09 -0.11 t0.69 -0.3 t0.36 -0.45 t0.1 -0.58 q0 -0.68 -0.64 -1.13 t-2.2 -0.97 q-0.68 -0.24 -1.36 -0.55 t-1.22 -0.78 t-0.88 -1.14 t-0.34 -1.63 t0.36 -1.73 t1.02 -1.31 t1.6 -0.83 t2.12 -0.29 q1.4 0 2.42 0.3 t1.68 0.66 l-0.9 2.46 q-0.58 -0.3 -1.29 -0.53 t-1.71 -0.23 q-1.12 0 -1.61 0.31 t-0.49 0.95 q0 0.38 0.18 0.64 t0.51 0.47 t0.76 0.38 t0.95 0.35 q1.08 0.4 1.88 0.79 t1.33 0.91 t0.79 1.22 t0.26 1.7 q0 1.94 -1.36 3.01 t-4.1 1.07 q-0.92 0 -1.66 -0.11 t-1.31 -0.27 t-0.98 -0.34 t-0.69 -0.34 l0.88 -2.48 q0.62 0.34 1.53 0.61 t2.23 0.27 z"></path></g><g  transform="matrix(0.27156941396434325,0,0,0.27156941396434325,14.891372402756966,141.51723098939513)" fill="#111111"><path d="M0.4 7.66 l0 -1.3 l3.3 0 l1.4 0 l3.3 0 l0 1.3 l-3.3 0 l0 12.3 l-1.4 0 l0 -12.3 l-3.3 0 z M20.056399999999996 15 l4.9479 0 l-2.4684 -6.26 z M28.496 20 l-1.52 0 l-1.459 -3.7 l-5.9755 0 l-1.4655 3.7 l-1.52 0 l5.98 -14.54 z M42.7698 13.5852 c-2.774 -0.64318 -4.1606 -1.833 -4.1592 -3.5694 c0.0009375 -1.2772 0.44806 -2.2326 1.3414 -2.8658 s1.9433 -0.95 3.15 -0.95 c2.644 0 4.2146 0.98666 4.7116 2.96 l-1.5143 0 c-0.27142 -1.1733 -1.3372 -1.76 -3.1972 -1.76 c-1.3133 0 -2.2308 0.38954 -2.7526 1.1687 c-0.1982 0.28756 -0.29632 0.65396 -0.29438 1.0992 c-0.0036328 0.83254 0.44954 1.4776 1.3595 1.9351 c0.42812 0.2272 1.3347 0.5202 2.7198 0.87896 s2.39 0.75912 3.0146 1.2011 c0.8687 0.61138 1.304 1.4737 1.306 2.587 c-0.0019531 1.3667 -0.543 2.4006 -1.6232 3.1016 c-0.9065 0.59228 -2.027 0.88844 -3.3618 0.88844 c-3.012 0 -4.758 -1.1467 -5.238 -3.44 l1.6551 0 c0.2566 1.44 1.4513 2.16 3.584 2.16 c1.5206 0 2.5834 -0.42278 3.1882 -1.2683 c0.23506 -0.3278 0.3526 -0.77502 0.3526 -1.3417 s-0.21898 -1.0272 -0.65696 -1.3817 c-0.62872 -0.51292 -1.8238 -0.9806 -3.5852 -1.403 z M61.267999999999994 20 l-1.4 0 l0 -13.6 l1.4 0 l0 6.382 l4.58 -6.382 l1.8 0 l-5 6.8 l5 6.8 l-1.8 0 l-4.58 -6.382 l0 6.382 z M106.07999999999998 20 l-2.12 -9.68 l-4.08 10.48 l-4.1 -10.48 l-2.1 9.68 l-1.44 0 l3.18 -14.5 l4.46 11.64 l4.46 -11.64 l3.16 14.5 l-1.42 0 z M120.79639999999999 15 l4.9479 0 l-2.4684 -6.26 z M129.236 20 l-1.52 0 l-1.459 -3.7 l-5.9755 0 l-1.4655 3.7 l-1.52 0 l5.98 -14.54 z M141.732 9.98 l0 10.02 l-1.4 0 l0 -14.46 l7.64 10.86 l0 -10 l1.4 0 l0 14.44 z M163.9684 15 l4.9479 0 l-2.4684 -6.26 z M172.40800000000002 20 l-1.52 0 l-1.459 -3.7 l-5.9755 0 l-1.4655 3.7 l-1.52 0 l5.98 -14.54 z M195.96399999999997 13.64 l-0.14002 0.84 c-0.29352 1.6543 -1.1013 3.0146 -2.4234 4.0808 s-2.8076 1.5993 -4.4566 1.5993 c-0.96 0 -1.8667 -0.18334 -2.72 -0.55 s-1.5967 -0.86666 -2.23 -1.5 s-1.1333 -1.3767 -1.5 -2.23 s-0.55 -1.7633 -0.55 -2.73 s0.18334 -1.8767 0.55 -2.73 s0.86666 -1.5967 1.5 -2.23 s1.3767 -1.1333 2.23 -1.5 s1.7133 -0.55 2.58 -0.55 c1.6281 0 3.0646 0.4616 4.3094 1.3848 s2.095 2.135 2.5506 3.6352 l-1.48 0 c-0.4297 -1.1011 -1.1192 -1.9797 -2.0684 -2.6358 s-2.0064 -0.98416 -3.1716 -0.98416 c-1.5467 0 -2.8666 0.54666 -3.96 1.64 s-1.64 2.4134 -1.64 3.96 c0 1.5389 0.54476 2.8604 1.6343 3.9642 s2.4114 1.6558 3.9658 1.6558 c1.233 0 2.3506 -0.35502 3.353 -1.0651 s1.7047 -1.655 2.107 -2.835 l-5.52 0 l0 -1.22 l7.08 0 z M215.84 20 l-8.08 0 l0 -13.6 l8.08 0 l0 1.3 l-6.68 0 l0 4.84 l6.48 0 l0 1.32 l-6.48 0 l0 4.84 l6.68 0 l0 1.3 z M240.77599999999998 20 l-2.12 -9.68 l-4.08 10.48 l-4.1 -10.48 l-2.1 9.68 l-1.44 0 l3.18 -14.5 l4.46 11.64 l4.46 -11.64 l3.16 14.5 l-1.42 0 z M261.37199999999996 20 l-8.08 0 l0 -13.6 l8.08 0 l0 1.3 l-6.68 0 l0 4.84 l6.48 0 l0 1.32 l-6.48 0 l0 4.84 l6.68 0 l0 1.3 z M275.16799999999995 9.98 l0 10.02 l-1.4 0 l0 -14.46 l7.64 10.86 l0 -10 l1.4 0 l0 14.44 z M294.1039999999999 7.66 l0 -1.3 l3.3 0 l1.4 0 l3.3 0 l0 1.3 l-3.3 0 l0 12.3 l-1.4 0 l0 -12.3 l-3.3 0 z M331.9738 13.5852 c-2.774 -0.64318 -4.1606 -1.833 -4.1592 -3.5694 c0.0009375 -1.2772 0.44806 -2.2326 1.3414 -2.8658 s1.9433 -0.95 3.15 -0.95 c2.644 0 4.2146 0.98666 4.7116 2.96 l-1.5143 0 c-0.27142 -1.1733 -1.3372 -1.76 -3.1972 -1.76 c-1.3133 0 -2.2308 0.38954 -2.7526 1.1687 c-0.1982 0.28756 -0.29632 0.65396 -0.29438 1.0992 c-0.0036328 0.83254 0.44954 1.4776 1.3595 1.9351 c0.42812 0.2272 1.3347 0.5202 2.7198 0.87896 s2.39 0.75912 3.0146 1.2011 c0.8687 0.61138 1.304 1.4737 1.306 2.587 c-0.0019531 1.3667 -0.543 2.4006 -1.6232 3.1016 c-0.9065 0.59228 -2.027 0.88844 -3.3618 0.88844 c-3.012 0 -4.758 -1.1467 -5.238 -3.44 l1.6551 0 c0.2566 1.44 1.4513 2.16 3.584 2.16 c1.5206 0 2.5834 -0.42278 3.1882 -1.2683 c0.23506 -0.3278 0.3526 -0.77502 0.3526 -1.3417 s-0.21898 -1.0272 -0.65696 -1.3817 c-0.62872 -0.51292 -1.8238 -0.9806 -3.5852 -1.403 z M353.39199999999994 13.599599999999999 l0 6.4005 l-1.4 0 l0 -6.3971 l-5.16 -7.2028 l1.8 0 l4.06 5.82 l4.06 -5.82 l1.78 0 z M372.54579999999993 13.5852 c-2.774 -0.64318 -4.1606 -1.833 -4.1592 -3.5694 c0.0009375 -1.2772 0.44806 -2.2326 1.3414 -2.8658 s1.9433 -0.95 3.15 -0.95 c2.644 0 4.2146 0.98666 4.7116 2.96 l-1.5143 0 c-0.27142 -1.1733 -1.3372 -1.76 -3.1972 -1.76 c-1.3133 0 -2.2308 0.38954 -2.7526 1.1687 c-0.1982 0.28756 -0.29632 0.65396 -0.29438 1.0992 c-0.0036328 0.83254 0.44954 1.4776 1.3595 1.9351 c0.42812 0.2272 1.3347 0.5202 2.7198 0.87896 s2.39 0.75912 3.0146 1.2011 c0.8687 0.61138 1.304 1.4737 1.306 2.587 c-0.0019531 1.3667 -0.543 2.4006 -1.6232 3.1016 c-0.9065 0.59228 -2.027 0.88844 -3.3618 0.88844 c-3.012 0 -4.758 -1.1467 -5.238 -3.44 l1.6551 0 c0.2566 1.44 1.4513 2.16 3.584 2.16 c1.5206 0 2.5834 -0.42278 3.1882 -1.2683 c0.23506 -0.3278 0.3526 -0.77502 0.3526 -1.3417 s-0.21898 -1.0272 -0.65696 -1.3817 c-0.62872 -0.51292 -1.8238 -0.9806 -3.5852 -1.403 z M388.54399999999987 7.66 l0 -1.3 l3.3 0 l1.4 0 l3.3 0 l0 1.3 l-3.3 0 l0 12.3 l-1.4 0 l0 -12.3 l-3.3 0 z M415.9199999999999 20 l-8.08 0 l0 -13.6 l8.08 0 l0 1.3 l-6.68 0 l0 4.84 l6.48 0 l0 1.32 l-6.48 0 l0 4.84 l6.68 0 l0 1.3 z M440.85599999999994 20 l-2.12 -9.68 l-4.08 10.48 l-4.1 -10.48 l-2.1 9.68 l-1.44 0 l3.18 -14.5 l4.46 11.64 l4.46 -11.64 l3.16 14.5 l-1.42 0 z"></path></g></svg>